<svg viewBox="0 0 300 250" fill="none" xmlns="http://www.w3.org/2000/svg">
  <defs>
    <linearGradient id="fintechGradient2" x1="0%" y1="100%" x2="100%" y2="0%">
      <stop offset="0%" stop-color="#818cf8" stop-opacity="0.9"/>
      <stop offset="100%" stop-color="#4f46e5" stop-opacity="0.4"/>
    </linearGradient>
  </defs>

  <!-- Fondo suave -->
  <rect x="0" y="0" width="300" height="250" fill="url(#fintechGradient2)" fill-opacity="0.05" />

  <!-- Billetera -->
  <rect x="50" y="80" width="100" height="60" rx="6"
    fill="url(#fintechGradient2)" fill-opacity="0.2"
    stroke="url(#fintechGradient2)" stroke-width="2"/>
  <path d="M50 95 H65 A3 3 0 0 1 68 98 V102 A3 3 0 0 1 65 105 H50"
    fill="url(#fintechGradient2)" fill-opacity="0.3"
    stroke="url(#fintechGradient2)" stroke-width="1.5"/>

  <!-- Tarjeta detrás de la billetera -->
  <rect x="60" y="55" width="80" height="45" rx="4"
    fill="url(#fintechGradient2)" fill-opacity="0.2"
    stroke="url(#fintechGradient2)" stroke-width="1.5"/>
  <rect x="67" y="62" width="20" height="5" rx="2"
    fill="url(#fintechGradient2)" fill-opacity="0.3"/>
  <rect x="67" y="70" width="40" height="5" rx="2"
    fill="url(#fintechGradient2)" fill-opacity="0.3"/>

  <!-- Gráfica de barras a la derecha -->
  <rect x="190" y="100" width="6" height="40" fill="url(#fintechGradient2)" fill-opacity="0.4"/>
  <rect x="205" y="90" width="6" height="50" fill="url(#fintechGradient2)" fill-opacity="0.4"/>
  <rect x="220" y="80" width="6" height="60" fill="url(#fintechGradient2)" fill-opacity="0.4"/>
  <rect x="235" y="95" width="6" height="45" fill="url(#fintechGradient2)" fill-opacity="0.4"/>

  <!-- Moneda flotante -->
  <circle cx="160" cy="130" r="12"
    fill="url(#fintechGradient2)" fill-opacity="0.2"
    stroke="url(#fintechGradient2)" stroke-width="1.5"/>
  <text x="156" y="135" font-size="10" fill="url(#fintechGradient2)" fill-opacity="0.8">$</text>
</svg>
